<?xml version="1.0" encoding="utf-8"?>
<!-- Generator: Adobe Illustrator 18.0.0, SVG Export Plug-In . SVG Version: 6.00 Build 0)  -->
<!DOCTYPE svg PUBLIC "-//W3C//DTD SVG 1.1//EN" "http://www.w3.org/Graphics/SVG/1.1/DTD/svg11.dtd">
<svg version="1.1" id="Layer_1" xmlns="http://www.w3.org/2000/svg" xmlns:xlink="http://www.w3.org/1999/xlink" x="0px" y="0px"
	 viewBox="0 0 24 24" enable-background="new 0 0 24 24" xml:space="preserve">
<path fill="#FFFFFF" d="M18.1,6H5.9C4.8,6,4,6.8,4,7.9v8.2c0,1,0.8,1.9,1.9,1.9h12.2c1,0,1.9-0.8,1.9-1.9V7.9C20,6.8,19.2,6,18.1,6z
	 M19,16.2l-4.8-4.6c1.4-1,3.7-2.4,4.8-3.2V16.2C19,16.2,19,16.2,19,16.2z M5.7,7h12.5c0.4,0,0.7,0.3,0.7,0.6c-1.2,0.8-6,4-6.6,4.3
	c-0.5,0.3-0.5,0.3-0.9,0C10.9,11.7,6.2,8.5,5,7.6C5.1,7.3,5.4,7,5.7,7z M5,16.2V8.5c1.1,0.8,3.3,2.2,4.7,3.2L5,16.2z M5.7,17
	c-0.1,0-0.3,0-0.4-0.1l4.9-4.8c0.4,0.3,0.7,0.5,0.8,0.5c0.4,0.2,0.6,0.3,0.8,0.3c0.2,0,0.5-0.1,0.8-0.3c0.1-0.1,0.4-0.3,0.8-0.5
	l5.1,4.8c-0.1,0.1-0.2,0.1-0.4,0.1H5.7z"/>
</svg>
